<svg xmlns="http://www.w3.org/2000/svg" width="48" height="48" viewBox="0 0 48 48" fill="none">
  <rect width="48" height="48" rx="10" fill="#863bff"/>
  <path fill="#fff" d="M24 13.2c-2.7-1.7-6-2.2-9.4-1.6-.9.15-1.6.95-1.6 1.9v16.1c0 1.2 1.1 2.05 2.25 1.85 2.9-.5 5.7-.05 8.75 1.75V13.2z"/>
  <path fill="#ede6ff" d="M24 13.2c2.7-1.7 6-2.2 9.4-1.6.9.15 1.6.95 1.6 1.9v16.1c0 1.2-1.1 2.05-2.25 1.85-2.9-.5-5.7-.05-8.75 1.75V13.2z"/>
  <path stroke="#863bff" stroke-width="1.6" stroke-linecap="round" d="M24 15.6v20.4"/>
</svg>
